<svg width="217" height="155" viewBox="0 0 217 155" fill="none" xmlns="http://www.w3.org/2000/svg">
    <path d="M171.5 154.5C213.474 154.5 216.5 93.4736 216.5 51.5C216.5 9.52636 115.474 0 73.5 0C31.5264 0 0 37.0264 0 79C0 120.974 129.526 154.5 171.5 154.5Z" fill="#F26E24" fill-opacity="0.91"/>
    <path d="M42.828 96.096C42.316 96.096 42.06 95.68 42.06 94.848V91.296L41.916 88.368C41.628 83.12 41.484 79.264 41.484 76.8C41.484 75.456 41.308 71.264 40.956 64.224C40.892 62.688 40.844 61.712 40.812 61.296C40.78 60.848 40.764 60.608 40.764 60.576V60.24C40.764 60.016 40.924 59.872 41.244 59.808C41.436 59.744 41.996 59.712 42.924 59.712H43.98H45.324C45.58 59.712 45.772 59.824 45.9 60.048C46.028 60.24 46.092 60.496 46.092 60.816C46.092 61.136 45.804 61.296 45.228 61.296L44.124 61.248H42.876C42.62 61.248 42.46 61.296 42.396 61.392C42.332 61.488 42.3 61.744 42.3 62.16C42.3 62.8 42.412 65.136 42.636 69.168C42.86 73.2 42.972 75.552 42.972 76.224C43.356 76.224 43.9 76.128 44.604 75.936C45.34 75.744 45.884 75.648 46.236 75.648C46.428 75.648 46.588 75.76 46.716 75.984C46.876 76.208 46.956 76.416 46.956 76.608C46.956 76.96 46.7 77.2 46.188 77.328C45.676 77.424 44.94 77.504 43.98 77.568C43.308 77.664 42.972 77.856 42.972 78.144C42.972 79.584 43.132 82.272 43.452 86.208C43.74 89.792 43.884 92.496 43.884 94.32L43.74 94.56C43.836 94.784 43.884 94.992 43.884 95.184C43.884 95.792 43.532 96.096 42.828 96.096ZM59.3813 97.008C54.9333 97.008 52.7093 89.312 52.7093 73.92V72C52.7093 69.312 52.8693 66.976 53.1893 64.992C53.3813 63.744 53.6373 62.72 53.9573 61.92C54.3093 61.12 54.7733 60.48 55.3493 60C55.8933 59.456 56.5973 59.184 57.4613 59.184C58.2293 59.184 58.9333 59.344 59.5733 59.664C60.2133 59.952 60.7413 60.336 61.1573 60.816C61.5093 61.264 61.8293 61.856 62.1172 62.592C62.4053 63.328 62.6293 64.032 62.7893 64.704L63.1733 66.96C63.9413 72.432 64.3253 77.28 64.3253 81.504V81.648C64.3253 83.248 64.2933 84.72 64.2293 86.064C64.1653 87.664 63.9893 89.344 63.7013 91.104C63.5733 91.968 63.3813 92.72 63.1253 93.36C62.9013 94 62.5973 94.64 62.2133 95.28C61.5413 96.432 60.5973 97.008 59.3813 97.008ZM59.4773 95.664C59.9893 95.664 60.4533 95.376 60.8693 94.8C61.2853 94.192 61.6053 93.36 61.8293 92.304C62.3413 90.064 62.6613 87.872 62.7893 85.728C62.8533 84 62.8853 82.32 62.8853 80.688V80.496L62.8373 75.696C62.7733 73.968 62.5813 71.728 62.2613 68.976C62.0053 67.024 61.4773 65.024 60.6773 62.976C60.3573 62.176 59.9253 61.552 59.3813 61.104C58.8693 60.656 58.3093 60.432 57.7013 60.432C57.1573 60.432 56.6773 60.688 56.2613 61.2C55.8453 61.712 55.5093 62.432 55.2533 63.36C54.6773 65.504 54.3573 67.488 54.2933 69.312C54.1973 70.88 54.1493 72.496 54.1493 74.16V76.512C54.1493 78.656 54.3573 81.376 54.7733 84.672C55.0293 86.752 55.3493 88.56 55.7333 90.096C56.1173 91.632 56.6293 92.928 57.2693 93.984C57.9093 95.104 58.6453 95.664 59.4773 95.664ZM77.0531 97.008C72.6051 97.008 70.3811 89.312 70.3811 73.92V72C70.3811 69.312 70.5411 66.976 70.8611 64.992C71.0531 63.744 71.3091 62.72 71.6291 61.92C71.9811 61.12 72.4451 60.48 73.0211 60C73.5651 59.456 74.2691 59.184 75.1331 59.184C75.9011 59.184 76.6051 59.344 77.2451 59.664C77.8851 59.952 78.4131 60.336 78.8291 60.816C79.1811 61.264 79.5011 61.856 79.7891 62.592C80.0771 63.328 80.3011 64.032 80.4611 64.704L80.8451 66.96C81.6131 72.432 81.9971 77.28 81.9971 81.504V81.648C81.9971 83.248 81.9651 84.72 81.9011 86.064C81.8371 87.664 81.6611 89.344 81.3731 91.104C81.2451 91.968 81.0531 92.72 80.7971 93.36C80.5731 94 80.2691 94.64 79.8851 95.28C79.2131 96.432 78.2691 97.008 77.0531 97.008ZM77.1491 95.664C77.6611 95.664 78.1251 95.376 78.5411 94.8C78.9571 94.192 79.2771 93.36 79.5011 92.304C80.0131 90.064 80.3331 87.872 80.4611 85.728C80.5251 84 80.5571 82.32 80.5571 80.688V80.496L80.5091 75.696C80.4451 73.968 80.2531 71.728 79.9331 68.976C79.6771 67.024 79.1491 65.024 78.3491 62.976C78.0291 62.176 77.5971 61.552 77.0531 61.104C76.5411 60.656 75.9811 60.432 75.3731 60.432C74.8291 60.432 74.3491 60.688 73.9331 61.2C73.5171 61.712 73.1811 62.432 72.9251 63.36C72.3491 65.504 72.0291 67.488 71.9651 69.312C71.8691 70.88 71.8211 72.496 71.8211 74.16V76.512C71.8211 78.656 72.0291 81.376 72.4451 84.672C72.7011 86.752 73.0211 88.56 73.4051 90.096C73.7891 91.632 74.3011 92.928 74.9411 93.984C75.5811 95.104 76.3171 95.664 77.1491 95.664ZM90.693 96.096C90.309 96.096 89.925 96 89.541 95.808C89.157 95.616 88.965 95.392 88.965 95.136C88.965 94.944 89.093 94.624 89.349 94.176C89.605 93.76 89.717 93.44 89.685 93.216L89.541 88.992L89.205 75.888L89.109 70.08C89.077 66.528 88.997 64.304 88.869 63.408C88.805 63.056 88.677 62.656 88.485 62.208C88.261 61.6 88.149 61.168 88.149 60.912C88.149 60.144 89.365 59.76 91.797 59.76H92.037C93.669 59.76 95.077 60.32 96.261 61.44C97.189 62.304 98.021 63.664 98.757 65.52C99.269 66.992 99.653 68.64 99.909 70.464C100.037 71.424 100.149 72.896 100.245 74.88V76.368C100.245 78.352 99.973 80.512 99.429 82.848C98.917 85.152 98.181 87.312 97.221 89.328C96.645 90.608 95.893 91.76 94.965 92.784C94.069 93.808 93.205 94.624 92.373 95.232C91.541 95.808 90.981 96.096 90.693 96.096ZM91.413 93.648C92.597 93.04 93.653 92.16 94.581 91.008C95.509 89.824 96.245 88.528 96.789 87.12C97.269 85.936 97.669 84.592 97.989 83.088C98.309 81.552 98.533 80.128 98.661 78.816C98.757 77.664 98.805 76.56 98.805 75.504C98.805 66.16 96.229 61.488 91.077 61.488C90.405 61.488 90.069 61.664 90.069 62.016C90.069 63.136 90.133 64.464 90.261 66C90.389 67.568 90.453 68.896 90.453 69.984C90.453 71.744 90.581 74.8 90.837 79.152C91.061 82.928 91.173 85.968 91.173 88.272V93.648H91.413ZM119.529 96.288C119.209 96.288 118.969 96.176 118.809 95.952C118.649 95.696 118.569 95.392 118.569 95.04V90.768V86.496L118.473 78.816C118.377 75.392 118.329 72.832 118.329 71.136L118.377 69.744V66.624C118.377 63.168 118.345 61.44 118.281 61.44H112.857C112.601 61.44 112.361 61.376 112.137 61.248C111.945 61.12 111.849 60.944 111.849 60.72C111.849 60.464 111.897 60.288 111.993 60.192C112.089 60.096 112.345 60.016 112.761 59.952C113.209 59.856 113.849 59.808 114.681 59.808H119.481L124.761 59.76C125.145 59.76 125.401 59.824 125.529 59.952C125.689 60.08 125.769 60.288 125.769 60.576C125.769 61.056 125.465 61.296 124.857 61.296H122.697H120.585L120.153 61.344L120.201 64.128V67.872V87.36V91.344L120.249 94.896V94.992C120.249 95.248 120.233 95.472 120.201 95.664C120.169 95.824 120.105 95.952 120.009 96.048C119.913 96.208 119.753 96.288 119.529 96.288ZM138.65 96.48C138.01 96.48 137.61 96.16 137.45 95.52L136.874 93.408C135.978 90.432 135.322 87.92 134.906 85.872C134.65 84.752 134.33 83.2 133.946 81.216C133.498 78.912 133.082 77.04 132.698 75.6L132.218 75.888L131.594 76.176L131.69 94.656V95.376C131.69 96.016 131.402 96.336 130.826 96.336C130.57 96.336 130.362 96.256 130.202 96.096C130.042 95.936 129.962 95.744 129.962 95.52V94.8L130.058 85.104L130.154 80.448C130.282 74.848 130.346 70.08 130.346 66.144V59.952C130.346 59.664 130.634 59.52 131.21 59.52C132.042 59.52 132.81 59.744 133.514 60.192C134.25 60.64 134.826 61.248 135.242 62.016C136.106 63.584 136.538 65.296 136.538 67.152C136.538 68.624 136.218 70.224 135.578 71.952C135.386 72.432 135.146 72.992 134.858 73.632C134.57 74.24 134.314 74.656 134.09 74.88C134.762 77.344 135.738 81.136 137.018 86.256L139.273 94.896C139.306 94.992 139.322 95.168 139.322 95.424C139.322 95.712 139.258 95.952 139.13 96.144C139.034 96.368 138.874 96.48 138.65 96.48ZM131.546 74.592C131.802 74.592 132.234 74.288 132.842 73.68C133.45 73.072 133.882 72.56 134.138 72.144C134.362 71.696 134.554 71.024 134.714 70.128C134.874 69.232 134.954 68.432 134.954 67.728C134.954 66.416 134.73 65.072 134.282 63.696C134.058 62.896 133.722 62.256 133.273 61.776C132.826 61.264 132.33 61.008 131.786 61.008H131.69C131.658 61.04 131.61 61.056 131.546 61.056V74.592ZM153.155 96C152.899 96 152.675 95.92 152.483 95.76C152.323 95.6 152.243 95.408 152.243 95.184V88.896C152.243 88.512 151.427 88.16 149.795 87.84C148.163 87.52 146.819 87.36 145.763 87.36C145.699 87.36 145.587 87.6 145.427 88.08C145.299 88.56 145.203 88.912 145.139 89.136C144.723 90.8 144.307 92.576 143.891 94.464L143.651 95.52C143.587 95.776 143.427 95.904 143.171 95.904C142.915 95.904 142.675 95.824 142.451 95.664C142.259 95.504 142.163 95.312 142.163 95.088L142.211 94.992V94.944L142.739 92.544C143.123 91.04 143.459 89.568 143.747 88.128C144.067 86.496 144.307 85.44 144.467 84.96C144.723 83.904 145.235 81.264 146.003 77.04L146.291 75.456C147.123 70.528 147.699 67.424 148.019 66.144C148.179 65.376 148.467 64.24 148.883 62.736C149.043 62.096 149.267 61.456 149.555 60.816C149.843 60.272 150.083 60 150.275 60C150.787 60 151.155 60.16 151.379 60.48C151.539 60.768 151.779 62.352 152.099 65.232C152.451 68.112 152.755 71.024 153.011 73.968L153.635 81.936C153.635 83.312 153.731 85.392 153.923 88.176C154.115 90.992 154.211 93.088 154.211 94.464V94.656C154.211 95.008 154.163 95.328 154.067 95.616C153.939 95.872 153.635 96 153.155 96ZM151.235 86.736C151.875 86.736 152.195 86.576 152.195 86.256C152.195 84.272 152.083 81.568 151.859 78.144C151.635 74.688 151.395 71.648 151.139 69.024C151.075 67.904 150.947 66.672 150.755 65.328L150.563 63.456C150.563 63.488 150.531 63.312 150.467 62.928L150.371 62.352C150.115 63.056 149.859 64.032 149.603 65.28C149.379 66.528 149.139 68 148.883 69.696C148.115 74.464 147.459 78.048 146.915 80.448L146.483 82.08C146.003 83.68 145.763 84.896 145.763 85.728V86.016C147.171 86.464 148.787 86.688 150.611 86.688H150.899C150.995 86.72 151.107 86.736 151.235 86.736ZM167.149 96.768C166.253 96.768 165.309 96.416 164.317 95.712C163.325 95.008 162.621 94.208 162.205 93.312C161.821 92.48 161.421 89.84 161.005 85.392C160.621 80.944 160.429 77.632 160.429 75.456V72.912C160.397 72.176 160.381 71.36 160.381 70.464C160.381 68.8 160.477 67.152 160.669 65.52C160.797 64.72 160.957 64.032 161.149 63.456C161.373 62.88 161.677 62.32 162.061 61.776C162.765 60.688 163.821 59.968 165.229 59.616C165.965 59.424 166.781 59.328 167.677 59.328C168.285 59.328 168.893 59.504 169.501 59.856C170.141 60.208 170.461 60.624 170.461 61.104C170.461 61.456 170.205 61.632 169.693 61.632C169.501 61.632 169.133 61.52 168.589 61.296C168.109 61.072 167.677 60.96 167.293 60.96C166.397 60.96 165.581 61.152 164.845 61.536C164.141 61.888 163.581 62.368 163.165 62.976C162.813 63.488 162.509 64.192 162.253 65.088C161.997 65.984 161.837 66.88 161.773 67.776C161.677 68.576 161.629 69.536 161.629 70.656L161.677 73.344C161.709 74.112 161.725 74.944 161.725 75.84C161.725 78.048 161.949 81.296 162.397 85.584C162.845 89.872 163.277 92.352 163.693 93.024C164.077 93.632 164.637 94.096 165.373 94.416C166.141 94.736 166.941 94.896 167.773 94.896C169.245 94.896 170.365 94.432 171.133 93.504C171.421 93.12 171.725 92.928 172.045 92.928C172.333 92.928 172.477 93.152 172.477 93.6C172.477 94.176 172.301 94.688 171.949 95.136C171.597 95.552 171.117 95.872 170.509 96.096C169.485 96.544 168.365 96.768 167.149 96.768ZM187.217 96.768C186.929 96.768 186.737 96.656 186.641 96.432C186.609 96.24 186.225 94.896 185.489 92.4L183.809 86.544C182.049 80.464 180.913 76.704 180.401 75.264L180.113 74.448C180.081 74.512 180.017 74.608 179.921 74.736C179.857 74.864 179.729 75.072 179.537 75.36C179.153 76.064 178.833 76.608 178.577 76.992L177.905 78.096V95.184C177.905 95.728 177.857 96.096 177.761 96.288C177.665 96.512 177.457 96.624 177.137 96.624C176.817 96.624 176.593 96.512 176.465 96.288C176.369 96.064 176.321 95.664 176.321 95.088V80.592C176.321 78.704 176.369 75.632 176.465 71.376L176.561 62.16C176.561 61.552 176.593 60.992 176.657 60.48C176.753 60.096 176.929 59.904 177.185 59.904C177.665 59.904 177.953 60.016 178.049 60.24C178.177 60.464 178.241 61.04 178.241 61.968L178.145 69.936L178.049 75.744H178.097C178.705 74.4 179.569 72.384 180.689 69.696L182.465 65.232C184.257 60.784 185.393 58.56 185.873 58.56C186.097 58.56 186.289 58.624 186.449 58.752C186.609 58.88 186.689 59.056 186.689 59.28C186.593 59.888 186.337 60.528 185.921 61.2L185.441 62.064C184.897 63.344 184.097 65.264 183.041 67.824C181.761 70.928 181.073 72.56 180.977 72.72C180.945 72.944 180.961 73.136 181.025 73.296C181.665 74.928 182.385 76.944 183.185 79.344C183.985 81.744 184.641 83.824 185.153 85.584C185.697 87.504 186.241 89.456 186.785 91.44C187.361 93.424 187.761 94.848 187.985 95.712C188.049 95.904 188.081 96.016 188.081 96.048C188.081 96.272 187.985 96.448 187.793 96.576C187.633 96.704 187.441 96.768 187.217 96.768Z" fill="white"/>
</svg>